<svg width="191" height="251" viewBox="0 0 191 251" fill="none" xmlns="http://www.w3.org/2000/svg">
<path d="M127.6 102.8C129.733 104.933 130.8 108 130.8 112C130.8 115.867 129.667 118.933 127.4 121.2L68.4 182.6C72.9333 183 77.4 183.2 81.8 183.2C96.0667 183.2 110.867 181.2 126.2 177.2C127.4 179.6 128 182 128 184.4C128 186.667 127.4 188.4 126.2 189.6C125.133 190.667 124 191.4 122.8 191.8C116.8 193.4 107 194.2 93.4 194.2C79.9333 194.2 68.8 193.4 60 191.8C58 189 57 185.6 57 181.6C57 177.6 58.4667 174.133 61.4 171.2L119.6 111.4C112.133 110.6 104.933 110.2 98 110.2C84.1333 110.2 72.4 111.8 62.8 115C61.6 112.067 61.0667 109.133 61.2 106.2C61.3333 103.267 63 101.333 66.2 100.4C69.4 99.3333 77.5333 98.8 90.6 98.8C103.8 98.8 116.133 100.133 127.6 102.8Z" fill="#00f0b5"/>
<path d="M148 165.1L169.1 145.7L148 127.4C148.533 126.333 149.4 125.4 150.6 124.6C151.8 123.733 153.1 123.3 154.5 123.3C155.9 123.3 157.1 123.733 158.1 124.6L180.1 145.7L158.1 168C157.233 168.8 156.033 169.2 154.5 169.2C153.167 169.2 151.9 168.833 150.7 168.1C149.5 167.3 148.6 166.3 148 165.1Z" fill="#00f0b5"/>
<path d="M43 165.1L21.9 145.7L43 127.4C42.4667 126.333 41.6 125.4 40.4 124.6C39.2 123.733 37.9 123.3 36.5 123.3C35.1 123.3 33.9 123.733 32.9 124.6L10.9 145.7L32.9 168C33.7667 168.8 34.9667 169.2 36.5 169.2C37.8333 169.2 39.1 168.833 40.3 168.1C41.5 167.3 42.4 166.3 43 165.1Z" fill="#00f0b5"/>
<path d="M50 146.6C50 138.333 56.5333 134.2 69.6 134.2C76.4 134.2 85.0667 135.533 95.6 138.2C106.267 140.867 114.067 142.2 119 142.2C127.8 142.2 134.6 139.867 139.4 135.2C141.933 138.533 143.2 142.067 143.2 145.8C143.2 149.533 140.8 152.4 136 154.4C131.2 156.4 126.133 157.4 120.8 157.4C115.467 157.4 107.733 156.067 97.6 153.4C87.4667 150.733 79.6667 149.4 74.2 149.4C65.4 149.4 58.6 151.733 53.8 156.4C51.2667 153.067 50 149.8 50 146.6Z" fill="#00f0b5"/>
</svg>
